<?xml version="1.0" encoding="iso-8859-1"?>
<!-- Generator: Adobe Illustrator 21.0.0, SVG Export Plug-In . SVG Version: 6.00 Build 0)  -->
<svg xmlns="http://www.w3.org/2000/svg" xmlns:xlink="http://www.w3.org/1999/xlink" version="1.1" id="Capa_1" x="0px" y="0px" viewBox="0 0 512 512" style="enable-background:new 0 0 512 512;" xml:space="preserve" width="512" height="512">
<g>
	<path d="M13.2,76.023c-7.5,1.199-13.2,7.5-13.2,15v150h211v-189.6L13.2,76.023z M506.901,19.622c-3.301-2.701-7.5-3.9-11.7-3.6   L241,47.822v193.2h271v-210C512,26.822,510.2,22.622,506.901,19.622z M241,271.023v193.5l254.2,31.5h1.8c3.6,0,7.2-1.201,9.901-3.6   c3.3-3.001,5.099-7.2,5.099-11.4v-210H241z M0,271.023v150c0,7.5,5.7,13.799,13.2,15l197.8,24.6v-189.6H0z"/>
</g>















</svg>
