<?xml version="1.0"?>
<svg xmlns="http://www.w3.org/2000/svg" height="512px" viewBox="0 0 448 448.10087" width="512px"><g><path d="m240.050781 152.101562c0 8.835938-7.164062 16-16 16-8.835937 0-16-7.164062-16-16 0-8.835937 7.164063-16 16-16 8.835938 0 16 7.164063 16 16zm0 0" data-original="#000000" class="active-path" data-old_color="#000000" fill="#E40914"/><path d="m184.050781 56.101562c-.019531-20.550781 15.535157-37.773437 35.980469-39.839843 20.445312-2.0625 39.128906 11.699219 43.21875 31.839843h16.242188c-4.148438-29.117187-30.117188-50.0625-59.453126-47.957031-29.332031 2.105469-52.042968 26.546875-51.988281 55.957031v24h16zm0 0" data-original="#000000" class="active-path" data-old_color="#000000" fill="#E40914"/><path d="m144.050781 240.101562c-13.253906 0-24-10.746093-24-24v-72h-56c-4.417969 0-8 3.582032-8 8v216h336v-216c0-4.417968-3.582031-8-8-8h-56v16h-16v-56c0-4.417968-3.582031-8-8-8h-160c-4.417969 0-8 3.582032-8 8v112c0 4.417969 3.582031 8 8 8h80v16zm221.65625-34.34375-56 56c-3.125 3.121094-8.1875 3.121094-11.3125 0l-24-24 11.3125-11.3125 18.34375 18.34375 50.34375-50.34375zm-61.65625-29.65625c13.082031-.027343 25.855469 3.980469 36.574219 11.480469l-9.152344 13.117188c-18.136718-12.625-42.554687-11.234375-59.144531 3.371093-16.585937 14.609376-21.054687 38.652344-10.824219 58.246094 10.230469 19.589844 32.515625 29.664063 53.984375 24.398438 21.464844-5.269532 36.558594-24.511719 36.5625-46.613282-.003906-2.300781-.167969-4.597656-.488281-6.871093l15.839844-2.257813c3.8125 26.449219-9.210938 52.480469-32.660156 65.292969-23.449219 12.8125-52.390626 9.707031-72.585938-7.789063-20.199219-17.492187-27.402344-45.695312-18.066406-70.730468 9.332031-25.039063 33.238281-41.644532 59.960937-41.644532zm-56 120v16h-16v-16zm-32-96v-17.136718c-15.601562-4.027344-25.777343-19.03125-23.746093-35.015625s15.632812-27.96875 31.746093-27.96875 29.714844 11.984375 31.746094 27.96875c2.027344 15.984375-8.144531 30.988281-23.746094 35.015625v17.136718zm16 64v16h-96c-13.253906 0-24 10.746094-24 24 0 13.253907 10.746094 24 24 24h176c10.945313.003907 20.507813-7.394531 23.246094-17.992187l15.488281 4c-4.5625 17.660156-20.496094 29.996094-38.734375 29.992187h-176c-22.089843 0-40-17.910156-40-40 0-22.09375 17.910157-40 40-40zm-16 32v16h-16v-16zm-32 0v16h-16v-16zm-32 0v16h-16v-16zm0 0" data-original="#000000" class="active-path" data-old_color="#000000" fill="#E40914"/><path d="m299.363281 416.101562-13.65625 13.65625c-1.5 1.5-3.535156 2.34375-5.65625 2.34375h-112c-2.121093 0-4.15625-.84375-5.65625-2.34375l-13.65625-13.65625h-148.6874998v16c0 8.835938 7.1640628 16 15.9999998 16h416c8.835938 0 16-7.164062 16-16v-16zm0 0" data-original="#000000" class="active-path" data-old_color="#000000" fill="#E40914"/><path d="m157.707031 402.445312 13.65625 13.65625h105.375l13.65625-13.65625c1.5-1.5 3.535157-2.34375 5.65625-2.34375h128v-256c0-17.671874-14.328125-32-32-32h-64v16h56c13.253907 0 24 10.746094 24 24v224c0 4.417969-3.582031 8-8 8h-352c-4.417969 0-8-3.582031-8-8v-224c0-13.253906 10.746094-24 24-24h56v-16h-64c-17.671875 0-32 14.328126-32 32v256h128c2.121094 0 4.15625.84375 5.65625 2.34375zm0 0" data-original="#000000" class="active-path" data-old_color="#000000" fill="#E40914"/></g> </svg>
