<?xml version="1.0"?>
<svg xmlns="http://www.w3.org/2000/svg" id="Layer_1" enable-background="new 0 0 56 56" height="512px" viewBox="0 0 56 56" width="512px"><g><path d="m12.03 4h2v2h-2z" data-original="#000000" class="active-path" data-old_color="#000000" fill="#E40914"/><path d="m4.03 4h2v2h-2z" data-original="#000000" class="active-path" data-old_color="#000000" fill="#E40914"/><path d="m20.03 4h2v2h-2z" data-original="#000000" class="active-path" data-old_color="#000000" fill="#E40914"/><path d="m53.53 0h-51c-1.378 0-2.5 1.122-2.5 2.5v7.5h56v-7.5c0-1.378-1.122-2.5-2.5-2.5zm-45.5 7c0 .552-.448 1-1 1h-4c-.552 0-1-.448-1-1v-4c0-.552.448-1 1-1h4c.552 0 1 .448 1 1zm8 0c0 .552-.448 1-1 1h-4c-.552 0-1-.448-1-1v-4c0-.552.448-1 1-1h4c.552 0 1 .448 1 1zm8 0c0 .552-.448 1-1 1h-4c-.552 0-1-.448-1-1v-4c0-.552.448-1 1-1h4c.552 0 1 .448 1 1z" data-original="#000000" class="active-path" data-old_color="#000000" fill="#E40914"/><path d="m39.03 38h2v2h-2z" data-original="#000000" class="active-path" data-old_color="#000000" fill="#E40914"/><path d="m28.03 50h2v2h-2z" data-original="#000000" class="active-path" data-old_color="#000000" fill="#E40914"/><path d="m28.03 38h2v2h-2z" data-original="#000000" class="active-path" data-old_color="#000000" fill="#E40914"/><path d="m39.03 50h2v2h-2z" data-original="#000000" class="active-path" data-old_color="#000000" fill="#E40914"/><path d="m50.03 38h2v2h-2z" data-original="#000000" class="active-path" data-old_color="#000000" fill="#E40914"/><path d="m50.03 50h2v2h-2z" data-original="#000000" class="active-path" data-old_color="#000000" fill="#E40914"/><path d="m28.03 32h24v-16h-24zm8-12c0-.356.19-.686.498-.865.309-.179.688-.18.998-.003l7 4c.312.178.504.509.504.868s-.192.69-.504.868l-7 4c-.154.088-.325.132-.496.132-.173 0-.347-.045-.502-.135-.308-.179-.498-.508-.498-.865z" data-original="#000000" class="active-path" data-old_color="#000000" fill="#E40914"/><path d="m.03 12v41.5c0 1.379 1.122 2.5 2.5 2.5h51c1.378 0 2.5-1.122 2.5-2.5v-41.5zm24 41c0 .552-.448 1-1 1h-20c-.552 0-1-.448-1-1v-38c0-.552.448-1 1-1h20c.552 0 1 .448 1 1zm8 0c0 .552-.448 1-1 1h-4c-.552 0-1-.448-1-1v-4c0-.552.448-1 1-1h4c.552 0 1 .448 1 1zm-1-7h-4c-.552 0-1-.448-1-1s.448-1 1-1h4c.552 0 1 .448 1 1s-.448 1-1 1zm1-5c0 .552-.448 1-1 1h-4c-.552 0-1-.448-1-1v-4c0-.552.448-1 1-1h4c.552 0 1 .448 1 1zm11 12c0 .552-.448 1-1 1h-4c-.552 0-1-.448-1-1v-4c0-.552.448-1 1-1h4c.552 0 1 .448 1 1zm-1-7h-4c-.552 0-1-.448-1-1s.448-1 1-1h4c.552 0 1 .448 1 1s-.448 1-1 1zm1-5c0 .552-.448 1-1 1h-4c-.552 0-1-.448-1-1v-4c0-.552.448-1 1-1h4c.552 0 1 .448 1 1zm11 12c0 .552-.448 1-1 1h-4c-.552 0-1-.448-1-1v-4c0-.552.448-1 1-1h4c.552 0 1 .448 1 1zm-1-7h-4c-.552 0-1-.448-1-1s.448-1 1-1h4c.552 0 1 .448 1 1s-.448 1-1 1zm1-5c0 .552-.448 1-1 1h-4c-.552 0-1-.448-1-1v-4c0-.552.448-1 1-1h4c.552 0 1 .448 1 1zm0-8c0 .552-.448 1-1 1h-26c-.552 0-1-.448-1-1v-18c0-.552.448-1 1-1h26c.552 0 1 .448 1 1z" data-original="#000000" class="active-path" data-old_color="#000000" fill="#E40914"/><path d="m38.03 21.723v4.554l3.984-2.277z" data-original="#000000" class="active-path" data-old_color="#000000" fill="#E40914"/><path d="m4.03 52h18v-36h-18zm15-3h-1c-.552 0-1-.448-1-1s.448-1 1-1h1c.552 0 1 .448 1 1s-.448 1-1 1zm0-4h-7c-.552 0-1-.448-1-1s.448-1 1-1h7c.552 0 1 .448 1 1s-.448 1-1 1zm0-4h-1c-.552 0-1-.448-1-1s.448-1 1-1h1c.552 0 1 .448 1 1s-.448 1-1 1zm0-4h-7c-.552 0-1-.448-1-1s.448-1 1-1h7c.552 0 1 .448 1 1s-.448 1-1 1zm0-4h-7c-.552 0-1-.448-1-1s.448-1 1-1h7c.552 0 1 .448 1 1s-.448 1-1 1zm0-4h-1c-.552 0-1-.448-1-1s.448-1 1-1h1c.552 0 1 .448 1 1s-.448 1-1 1zm0-4h-7c-.552 0-1-.448-1-1s.448-1 1-1h7c.552 0 1 .448 1 1s-.448 1-1 1zm-1-6h1c.552 0 1 .448 1 1s-.448 1-1 1h-1c-.552 0-1-.448-1-1s.448-1 1-1zm-11 0h7c.552 0 1 .448 1 1s-.448 1-1 1h-7c-.552 0-1-.448-1-1s.448-1 1-1zm0 4h1c.552 0 1 .448 1 1s-.448 1-1 1h-1c-.552 0-1-.448-1-1s.448-1 1-1zm0 4h7c.552 0 1 .448 1 1s-.448 1-1 1h-7c-.552 0-1-.448-1-1s.448-1 1-1zm0 4h1c.552 0 1 .448 1 1s-.448 1-1 1h-1c-.552 0-1-.448-1-1s.448-1 1-1zm0 4h1c.552 0 1 .448 1 1s-.448 1-1 1h-1c-.552 0-1-.448-1-1s.448-1 1-1zm0 4h7c.552 0 1 .448 1 1s-.448 1-1 1h-7c-.552 0-1-.448-1-1s.448-1 1-1zm0 4h1c.552 0 1 .448 1 1s-.448 1-1 1h-1c-.552 0-1-.448-1-1s.448-1 1-1zm0 4h7c.552 0 1 .448 1 1s-.448 1-1 1h-7c-.552 0-1-.448-1-1s.448-1 1-1z" data-original="#000000" class="active-path" data-old_color="#000000" fill="#E40914"/></g> </svg>
