<?xml version="1.0"?>
<svg xmlns="http://www.w3.org/2000/svg" xmlns:xlink="http://www.w3.org/1999/xlink" version="1.1" id="Layer_1" x="0px" y="0px" viewBox="0 0 39 56" style="enable-background:new 0 0 39 56;" xml:space="preserve" width="512px" height="512px"><g><g id="_x33_3-Phone_Movie">
	<g>
		<path d="M30.03,1.547C30.03,0.694,29.336,0,28.484,0H1.577C0.724,0,0.03,0.694,0.03,1.547V6h30V1.547z M18.03,4h-6    c-0.552,0-1-0.447-1-1s0.448-1,1-1h6c0.552,0,1,0.447,1,1S18.582,4,18.03,4z" data-original="#000000" class="active-path" data-old_color="#000000" fill="#E00914"/>
		<circle cx="15.03" cy="53" r="3" data-original="#000000" class="active-path" data-old_color="#000000" fill="#E00914"/>
		<path d="M11.055,50H0.03v4.453C0.03,55.306,0.724,56,1.577,56h9.479c-0.634-0.838-1.025-1.87-1.025-3S10.421,50.838,11.055,50z" data-original="#000000" class="active-path" data-old_color="#000000" fill="#E00914"/>
		<path d="M20.03,53c0,1.13-0.391,2.162-1.025,3h9.479c0.853,0,1.546-0.694,1.546-1.547V50H19.005    C19.639,50.838,20.03,51.87,20.03,53z" data-original="#000000" class="active-path" data-old_color="#000000" fill="#E00914"/>
		<rect x="4.03" y="21" width="2" height="6" data-original="#000000" class="active-path" data-old_color="#000000" fill="#E00914"/>
		<polygon points="33.399,13 28.733,17 32.661,17 37.327,13   " data-original="#000000" class="active-path" data-old_color="#000000" fill="#E00914"/>
		<path d="M11.03,36V18v-6c0-0.553,0.448-1,1-1h18V8h-30v40h30V37h-18C11.478,37,11.03,36.553,11.03,36z M7.03,45h-4    c-0.552,0-1-0.447-1-1s0.448-1,1-1h4c0.552,0,1,0.447,1,1S7.582,45,7.03,45z M2.03,40c0-0.553,0.448-1,1-1h2c0.552,0,1,0.447,1,1    s-0.448,1-1,1h-2C2.478,41,2.03,40.553,2.03,40z M8.03,36c0,0.553-0.448,1-1,1h-4c-0.552,0-1-0.447-1-1v-4c0-0.553,0.448-1,1-1h4    c0.552,0,1,0.447,1,1V36z M8.03,28c0,0.553-0.448,1-1,1h-4c-0.552,0-1-0.447-1-1v-8c0-0.553,0.448-1,1-1h4c0.552,0,1,0.447,1,1V28    z M8.03,16c0,0.553-0.448,1-1,1h-4c-0.552,0-1-0.447-1-1v-4c0-0.553,0.448-1,1-1h4c0.552,0,1,0.447,1,1V16z M21.03,45h-10    c-0.552,0-1-0.447-1-1s0.448-1,1-1h10c0.552,0,1,0.447,1,1S21.582,45,21.03,45z M27.03,45h-2c-0.552,0-1-0.447-1-1s0.448-1,1-1h2    c0.552,0,1,0.447,1,1S27.582,45,27.03,45z M28.03,40c0,0.553-0.448,1-1,1H9.06c-0.552,0-1-0.447-1-1s0.448-1,1-1h17.97    C27.582,39,28.03,39.447,28.03,40z" data-original="#000000" class="active-path" data-old_color="#000000" fill="#E00914"/>
		<polygon points="13.03,15.826 16.327,13 13.03,13   " data-original="#000000" class="active-path" data-old_color="#000000" fill="#E00914"/>
		<polygon points="25.03,29.132 28.227,27 25.03,24.868   " data-original="#000000" class="active-path" data-old_color="#000000" fill="#E00914"/>
		<rect x="4.03" y="33" width="2" height="2" data-original="#000000" class="active-path" data-old_color="#000000" fill="#E00914"/>
		<polygon points="39.03,14.174 35.733,17 39.03,17   " data-original="#000000" class="active-path" data-old_color="#000000" fill="#E00914"/>
		<polygon points="26.399,13 21.733,17 25.661,17 30.327,13   " data-original="#000000" class="active-path" data-old_color="#000000" fill="#E00914"/>
		<path d="M13.03,19v16h18h8V19H13.03z M30.584,27.832l-6,4C24.417,31.943,24.223,32,24.029,32c-0.162,0-0.324-0.039-0.472-0.118    c-0.325-0.174-0.528-0.513-0.528-0.882v-8c0-0.369,0.203-0.708,0.528-0.882s0.72-0.153,1.026,0.05l6,4    c0.278,0.186,0.445,0.498,0.445,0.832S30.863,27.646,30.584,27.832z" data-original="#000000" class="active-path" data-old_color="#000000" fill="#E00914"/>
		<polygon points="19.399,13 14.733,17 18.661,17 23.327,13   " data-original="#000000" class="active-path" data-old_color="#000000" fill="#E00914"/>
		<rect x="4.03" y="13" width="2" height="2" data-original="#000000" class="active-path" data-old_color="#000000" fill="#E00914"/>
	</g>
</g></g> </svg>
