<?xml version="1.0"?>
<svg xmlns="http://www.w3.org/2000/svg" id="Layer_1" enable-background="new 0 0 256 256" height="512px" viewBox="0 0 256 256" width="512px" class=""><g><path d="m210.327 15.501-174.708 46.813c-1.713.459-2.729 2.22-2.27 3.932l5.171 19.297 180.91-48.474-5.171-19.297c-.459-1.713-2.219-2.73-3.932-2.271z" fill="#4671c6" data-original="#4671C6" class="" data-old_color="#4671c6" style="fill:#E00914"/><path d="m35.619 62.314c-.887.238-1.581.828-1.986 1.576l27.165 15.684 20.468-5.484-28.4-16.397z" fill="#a4c9ff" data-original="#A4C9FF" class="active-path" data-old_color="#a4c9ff" style="fill:#FFFFFF"/><path d="m38.501 108.732v-23.189h-8.294v107.024c0 7.093 5.75 12.843 12.843 12.843h61.762l20.445 33.655c1.25 2.058 4.238 2.058 5.488 0l20.445-33.655h61.762c7.093 0 12.843-5.75 12.843-12.843v-83.836h-187.294z" fill="#e0ebfc" data-original="#E0EBFC" class="" data-old_color="#e0ebfc" style="fill:#E00914"/><path d="m38.501 85.543h187.293v23.189h-187.293z" fill="#4671c6" data-original="#4671C6" class="" data-old_color="#4671c6" style="fill:#E00914"/><g fill="#a4c9ff"><path d="m202.567 108.732 23.188-23.189h-21.189l-23.189 23.189z" data-original="#000000" class="" data-old_color="#000000" style="fill:#E00914"/><path d="m155.476 108.732 23.189-23.189h-21.19l-23.189 23.189z" data-original="#000000" class="" data-old_color="#000000" style="fill:#E00914"/><path d="m106.657 108.732 23.188-23.189h-21.189l-23.189 23.189z" data-original="#000000" class="" data-old_color="#000000" style="fill:#E00914"/><path d="m61.565 85.543-23.064 23.064v.125h21.065l23.189-23.189z" data-original="#000000" class="" data-old_color="#000000" style="fill:#E00914"/></g><path d="m193.285 138.877h-130.57c-2.955 0-5.351-2.396-5.351-5.351 0-2.955 2.396-5.351 5.351-5.351h130.57c2.955 0 5.351 2.396 5.351 5.351 0 2.955-2.396 5.351-5.351 5.351z" fill="#6bdddd" data-original="#6BDDDD" class="" data-old_color="#6bdddd" style="fill:#FFFFFF"/><path d="m193.285 162.422h-130.57c-2.955 0-5.351-2.396-5.351-5.351 0-2.955 2.396-5.351 5.351-5.351h130.57c2.955 0 5.351 2.396 5.351 5.351 0 2.956-2.396 5.351-5.351 5.351z" fill="#6bdddd" data-original="#6BDDDD" class="" data-old_color="#6bdddd" style="fill:#FFFFFF"/><path d="m193.285 185.968h-59.934c-2.955 0-5.351-2.396-5.351-5.351 0-2.955 2.396-5.351 5.351-5.351h59.934c2.955 0 5.351 2.396 5.351 5.351 0 2.955-2.396 5.351-5.351 5.351z" fill="#6bdddd" data-original="#6BDDDD" class="" data-old_color="#6bdddd" style="fill:#FFFFFF"/><path d="m128 242.609c-1.835 0-3.5-.937-4.454-2.505l-19.86-32.693h-60.637c-8.185 0-14.843-6.659-14.843-14.843v-107.025c0-1.104.896-2 2-2h8.294c1.104 0 2 .896 2 2v21.188h185.292c1.104 0 2 .896 2 2v83.835c0 8.185-6.658 14.843-14.843 14.843h-60.637l-19.86 32.693c-.952 1.57-2.617 2.507-4.452 2.507zm-95.793-155.066v105.024c0 5.979 4.864 10.843 10.843 10.843h61.762c.699 0 1.347.365 1.709.961l20.444 33.655c.319.525.83.582 1.035.582s.716-.057 1.035-.582l20.444-33.655c.363-.597 1.011-.961 1.709-.961h61.762c5.979 0 10.843-4.864 10.843-10.843v-81.835h-185.292c-1.104 0-2-.896-2-2v-21.189z" fill="#3762cc" data-original="#3762CC" class="" data-old_color="#3762cc" style="fill:#E00914"/><path d="m225.793 110.732h-187.292c-1.104 0-2-.896-2-2v-23.189c0-1.104.896-2 2-2h187.292c1.104 0 2 .896 2 2v23.188c0 1.105-.895 2.001-2 2.001zm-185.292-4h183.292v-19.189h-183.292z" fill="#3762cc" data-original="#3762CC" class="" data-old_color="#3762cc" style="fill:#E00914"/><path d="m190.993 20.681 28.4 16.397-20.468 5.485-28.4-16.397z" fill="#a4c9ff" data-original="#A4C9FF" class="active-path" data-old_color="#a4c9ff" style="fill:#FFFFFF"/><path d="m145.507 32.869 28.4 16.397-20.468 5.485-28.4-16.397z" fill="#a4c9ff" data-original="#A4C9FF" class="active-path" data-old_color="#a4c9ff" style="fill:#FFFFFF"/><path d="m98.351 45.505 28.4 16.397-20.468 5.484-28.4-16.397z" fill="#a4c9ff" data-original="#A4C9FF" class="active-path" data-old_color="#a4c9ff" style="fill:#FFFFFF"/><path d="m38.519 87.543c-.348 0-.693-.091-1-.268-.459-.265-.794-.702-.932-1.214l-5.17-19.297c-.36-1.344-.176-2.749.52-3.954.696-1.206 1.819-2.068 3.164-2.428l174.708-46.813c2.772-.744 5.638.908 6.382 3.685l5.17 19.297c.286 1.067-.347 2.164-1.414 2.449l-180.91 48.475c-.171.046-.345.068-.518.068zm172.638-70.151c-.103 0-.208.013-.313.041l-174.708 46.813c-.645.173-1.028.838-.856 1.483l4.653 17.365 177.047-47.44-4.652-17.365c-.145-.54-.636-.897-1.171-.897zm-.83-1.891h.01z" fill="#3762cc" data-original="#3762CC" class="" data-old_color="#3762cc" style="fill:#E00914"/><path d="m45.676 108.732h-12.259c-1.773 0-3.211-1.437-3.211-3.211v-39.777c0-1.773 1.437-3.211 3.211-3.211h12.259c6.502 0 11.773 5.271 11.773 11.773v22.653c0 6.502-5.271 11.773-11.773 11.773z" fill="#6bdddd" data-original="#6BDDDD" class="" data-old_color="#6bdddd" style="fill:#FFFFFF"/><circle cx="43.828" cy="85.543" fill="#f9a7a7" r="7.625" data-original="#F9A7A7" class="" data-old_color="#f9a7a7" style="fill:#FFFFFF"/><path d="m45.676 110.732h-12.259c-2.874 0-5.211-2.337-5.211-5.211v-39.777c0-2.873 2.337-5.21 5.211-5.21h12.258c7.594 0 13.773 6.178 13.773 13.772v22.654c.001 7.594-6.178 13.772-13.772 13.772zm-12.259-46.199c-.667 0-1.211.543-1.211 1.21v39.777c0 .667.543 1.211 1.211 1.211h12.258c5.389 0 9.773-4.384 9.773-9.772v-22.653c0-5.389-4.384-9.772-9.773-9.772h-12.258z" fill="#3762cc" data-original="#3762CC" class="" data-old_color="#3762cc" style="fill:#E00914"/><path d="m43.828 95.169c-5.308 0-9.625-4.318-9.625-9.625s4.318-9.625 9.625-9.625 9.625 4.318 9.625 9.625-4.318 9.625-9.625 9.625zm0-15.251c-3.102 0-5.625 2.523-5.625 5.625s2.523 5.625 5.625 5.625 5.625-2.523 5.625-5.625-2.523-5.625-5.625-5.625z" fill="#3762cc" data-original="#3762CC" class="" data-old_color="#3762cc" style="fill:#E00914"/></g> </svg>
