<?xml version="1.0"?>
<svg xmlns="http://www.w3.org/2000/svg" id="Capa_1" enable-background="new 0 0 512 512" height="512px" viewBox="0 0 512 512" width="512px"><g><path d="m60.051 210.874h44.132v116.545h-44.132z" data-original="#000000" class="active-path" data-old_color="#000000" fill="#E40914"/><path d="m223.616 214.877h-50.328v-30.025h86.129c28.467-18.264 62.299-28.864 98.56-28.864 43.258 0 83.05 15.095 114.41 40.28v-73.191h-472.387v293.913h192.422c-11.194-23.67-17.468-50.104-17.468-77.979 0-47.863 18.477-91.486 48.662-124.134zm-89.408 142.567h-104.182v-176.595h104.182z" data-original="#000000" class="active-path" data-old_color="#000000" fill="#E40914"/><path d="m472.387 18.965h-472.387v74.088h472.387zm-434.335 53.716c-8.416 0-14.648-6.879-15.012-15.012-.363-8.107 7.16-15.012 15.012-15.012 8.416 0 14.648 6.879 15.012 15.012.364 8.107-7.159 15.012-15.012 15.012zm50.045 0c-8.416 0-14.648-6.879-15.012-15.012-.363-8.107 7.16-15.012 15.012-15.012 8.416 0 14.648 6.879 15.012 15.012.363 8.107-7.16 15.012-15.012 15.012zm50.044 0c-8.416 0-14.648-6.879-15.012-15.012-.363-8.107 7.16-15.012 15.012-15.012 8.416 0 14.648 6.879 15.012 15.012.364 8.107-7.159 15.012-15.012 15.012z" data-original="#000000" class="active-path" data-old_color="#000000" fill="#E40914"/><path d="m390.288 303.009c0-17.816-14.494-32.311-32.31-32.311s-32.311 14.495-32.311 32.311v8.77h64.621z" data-original="#000000" class="active-path" data-old_color="#000000" fill="#E40914"/><path d="m390.288 341.837h-64.621v47.158h64.621zm-32.311 38.609c-8.426 0-14.665-6.886-15.029-15.029-.364-8.117 7.168-15.029 15.029-15.029 8.426 0 14.665 6.886 15.029 15.029.364 8.116-7.167 15.029-15.029 15.029z" data-original="#000000" class="active-path" data-old_color="#000000" fill="#E40914"/><path d="m357.978 184.989c-84.929 0-154.023 69.094-154.023 154.023s69.095 154.023 154.023 154.023 154.022-69.094 154.022-154.023-69.094-154.023-154.022-154.023zm-62.37 234.065v-116.045c0-34.39 27.979-62.369 62.369-62.369s62.37 27.979 62.37 62.369v116.046h-124.739z" data-original="#000000" class="active-path" data-old_color="#000000" fill="#E40914"/></g> </svg>
