<svg height="512" viewBox="0 0 64 64" width="512" xmlns="http://www.w3.org/2000/svg"><path d="m59 15v38h-54v-38a4 4 0 0 1 4-4h46a4 4 0 0 1 4 4z" fill="#3d9ae2"/><path d="m9 15h46v34h-46z" fill="#ffdaaa"/><circle cx="32" cy="27" fill="#ffcd00" r="8"/><path d="m5 53h-2v4a4 4 0 0 0 4 4h50a4 4 0 0 0 4-4v-4z" fill="#58595b"/><path d="m11 11h-2a4 4 0 0 0 -4 4v38h2v-38a4 4 0 0 1 4-4z" fill="#1a6fb0"/><path d="m5 57v-4h-2v4a4 4 0 0 0 4 4h2a4 4 0 0 1 -4-4z" fill="#414042"/><path d="m26 55a2 2 0 0 0 2 2h8a2 2 0 0 0 2-2v-2h-12z" fill="#e6e7e8"/><path d="m18 39h28v6h-28z" fill="#006df0"/><circle cx="32" cy="25" fill="none" r="2"/><path d="m34 30h-4a2.006 2.006 0 0 0 -2 2v1.921a7.954 7.954 0 0 0 8 0v-1.921a2.006 2.006 0 0 0 -2-2z" fill="#d80027"/><circle cx="32" cy="26" fill="#d80027" r="2"/><g fill="#f1f2f2"><path d="m21 41h2v2h-2z"/><path d="m25 41h2v2h-2z"/><path d="m29 41h2v2h-2z"/><path d="m33 41h2v2h-2z"/><path d="m37 41h2v2h-2z"/></g></svg>