<?xml version="1.0" encoding="iso-8859-1"?>
<!-- Generator: Adobe Illustrator 19.0.0, SVG Export Plug-In . SVG Version: 6.00 Build 0)  -->
<svg version="1.1" id="Layer_1" xmlns="http://www.w3.org/2000/svg" xmlns:xlink="http://www.w3.org/1999/xlink" x="0px" y="0px"
	 viewBox="0 0 512 512" style="enable-background:new 0 0 512 512;" xml:space="preserve">
<path style="fill:#F3F3F3;" d="M480,0H32C13.867,0,0,13.867,0,32v448c0,18.133,13.867,32,32,32h448c18.133,0,32-13.867,32-32V32
	C512,13.867,498.133,0,480,0z"/>
<path style="fill:#8AD7F8;" d="M512,122.667V32c0-18.133-13.867-32-32-32H32C13.867,0,0,13.867,0,32v90.667H512z"/>
<path style="fill:#FFFFFF;" d="M446.933,37.333c12.8,0,23.467,10.667,23.467,23.467s-10.667,24.533-23.467,24.533h-240
	c-12.8,0-23.467-10.667-23.467-23.467S194.133,38.4,206.933,38.4h240V37.333z"/>
<circle style="fill:#415A6B;" cx="136.533" cy="60.8" r="23.467"/>
<circle style="fill:#F3705A;" cx="65.067" cy="60.8" r="23.467"/>
<circle style="fill:#FFD15C;" cx="171.733" cy="274.133" r="92.8"/>
<circle style="fill:#F7B64C;" cx="171.733" cy="274.133" r="70.4"/>
<path style="fill:#FFD15C;" d="M166.4,322.133V313.6c-9.6-1.067-19.2-6.4-27.733-13.867l10.667-12.8
	c6.4,5.333,11.733,8.533,17.067,10.667v-17.067c-8.533-2.133-13.867-5.333-18.133-8.533s-5.333-8.533-5.333-14.933
	c0-6.4,2.133-11.733,6.4-17.067c4.267-4.267,10.667-7.467,17.067-7.467V227.2h12.8v6.4c7.467,1.067,16,4.267,23.467,9.6l-9.6,13.867
	c-5.333-3.2-9.6-6.4-13.867-7.467v17.067c8.533,2.133,14.933,5.333,19.2,8.533c4.267,3.2,6.4,8.533,6.4,16
	c0,6.4-2.133,12.8-6.4,17.067s-10.667,7.467-18.133,7.467v8.533H166.4V322.133z M166.4,247.467c-3.2,1.067-5.333,3.2-5.333,6.4
	c0,3.2,2.133,5.333,5.333,7.467V247.467z M185.6,290.133c0-2.133,0-3.2-1.067-4.267c-1.067-1.067-2.133-2.133-4.267-3.2V297.6
	C183.467,296.533,185.6,294.4,185.6,290.133z"/>
<polygon style="fill:#415A6B;" points="469.333,377.6 421.333,382.933 442.667,425.6 397.867,446.933 377.6,404.267 
	343.467,437.333 349.867,290.133 "/>
<rect x="56.533" y="387.2" style="fill:#FFD15C;" width="182.4" height="80"/>
<g>
	<rect x="56.533" y="407.467" style="fill:#F7B64C;" width="182.4" height="8.533"/>
	<rect x="56.533" y="436.267" style="fill:#F7B64C;" width="182.4" height="8.533"/>
</g>
<g>
	<path style="fill:#66C6B9;" d="M349.867,226.133c-3.2,0-6.4,3.2-6.4,6.4v12.8c0,3.2,3.2,6.4,6.4,6.4s6.4-3.2,6.4-6.4v-12.8
		C356.267,229.333,353.067,226.133,349.867,226.133z"/>
	<path style="fill:#66C6B9;" d="M306.133,244.267c-2.133,2.133-2.133,6.4,0,8.533l8.533,8.533c2.133,2.133,6.4,2.133,8.533,0
		c2.133-2.133,2.133-6.4,0-8.533l-8.533-8.533C312.533,242.133,308.267,242.133,306.133,244.267z"/>
	<path style="fill:#66C6B9;" d="M288,289.067c0,3.2,3.2,6.4,6.4,6.4h12.8c3.2,0,6.4-3.2,6.4-6.4c0-3.2-3.2-6.4-6.4-6.4h-12.8
		C291.2,282.667,288,284.8,288,289.067z"/>
	<path style="fill:#66C6B9;" d="M306.133,332.8c2.133,2.133,6.4,2.133,8.533,0l8.533-8.533c2.133-2.133,2.133-6.4,0-8.533
		c-2.133-2.133-6.4-2.133-8.533,0l-8.533,8.533C304,326.4,304,329.6,306.133,332.8z"/>
	<path style="fill:#66C6B9;" d="M411.733,289.067c0-3.2-3.2-6.4-6.4-6.4h-12.8c-3.2,0-6.4,3.2-6.4,6.4c0,3.2,3.2,6.4,6.4,6.4h12.8
		C409.6,295.467,411.733,292.267,411.733,289.067z"/>
	<path style="fill:#66C6B9;" d="M393.6,244.267c-2.133-2.133-6.4-2.133-8.533,0l-8.533,8.533c-2.133,2.133-2.133,6.4,0,8.533
		c2.133,2.133,6.4,2.133,8.533,0l8.533-8.533C396.8,250.667,396.8,247.467,393.6,244.267z"/>
</g>
<g>
</g>
<g>
</g>
<g>
</g>
<g>
</g>
<g>
</g>
<g>
</g>
<g>
</g>
<g>
</g>
<g>
</g>
<g>
</g>
<g>
</g>
<g>
</g>
<g>
</g>
<g>
</g>
<g>
</g>
</svg>
