<?xml version="1.0"?>
<svg xmlns="http://www.w3.org/2000/svg" id="Layer_35" enable-background="new 0 0 64 64" height="512px" viewBox="0 0 64 64" width="512px"><g><path d="m5 49v-38c0-1.103.897-2 2-2h24c1.103 0 2 .897 2 2v20.111c.574-.587 1.251-1.068 2-1.426v-23.685c0-1.654-1.346-3-3-3h-5v1c0 1.654-1.346 3-3 3h-10c-1.654 0-3-1.346-3-3v-1h-5c-1.654 0-3 1.346-3 3v47h22v-1c0-.338.021-.67.051-1h-18.051c-1.103 0-2-.897-2-2z" data-original="#000000" class="active-path" data-old_color="#000000" fill="#E40914"/><path d="m17 21v-2.586l-2.586 2.586z" data-original="#000000" class="active-path" data-old_color="#000000" fill="#E40914"/><path d="m11 39h6v6h-6z" data-original="#000000" class="active-path" data-old_color="#000000" fill="#E40914"/><path d="m11 21h2.586l-2.293-2.293 1.414-1.414 1.293 1.293 3-3v-.586h-6z" data-original="#000000" class="active-path" data-old_color="#000000" fill="#E40914"/><path d="m11 27h6v6h-6z" data-original="#000000" class="active-path" data-old_color="#000000" fill="#E40914"/><path d="m37.03 51.616.97.97.97-.97-.615-8.616h-.71z" data-original="#000000" class="active-path" data-old_color="#000000" fill="#E40914"/><path d="m3 58c0 1.654 1.346 3 3 3h19v-6h-22zm12-1h8v2h-8z" data-original="#000000" class="active-path" data-old_color="#000000" fill="#E40914"/><circle cx="38" cy="36" r="5" data-original="#000000" class="active-path" data-old_color="#000000" fill="#E40914"/><path d="m14 5h10c.552 0 1-.448 1-1v-1h-12v1c0 .552.448 1 1 1z" data-original="#000000" class="active-path" data-old_color="#000000" fill="#E40914"/><path d="m53.5 28c-.827 0-1.5.673-1.5 1.5v9.5c0 2.206-1.794 4-4 4h-7.64l.671 9.384-3.031 3.03-3.03-3.03.669-9.365c-4.795.191-8.639 4.14-8.639 8.981v9h3v-13h2v13h12v-9.913c0-1.693 1.209-3.142 2.874-3.444l3.199-.581c2.855-.52 4.927-3.002 4.927-5.904v-11.658c0-.827-.673-1.5-1.5-1.5z" data-original="#000000" class="active-path" data-old_color="#000000" fill="#E40914"/><path d="m49 17.618v4.764l4.764-2.382z" data-original="#000000" class="active-path" data-old_color="#000000" fill="#E40914"/><path d="m60 12h-16c-.552 0-1 .448-1 1v14c0 .552.448 1 1 1h6.351c.564-1.178 1.758-2 3.149-2s2.585.822 3.149 2h3.351c.552 0 1-.448 1-1v-14c0-.552-.448-1-1-1zm-13 13.618v-11.236l11.236 5.618z" data-original="#000000" class="active-path" data-old_color="#000000" fill="#E40914"/><path d="m33.452 41.31c-1.498-1.285-2.452-3.187-2.452-5.31v-25h-24v38h18.426c1.082-3.804 4.158-6.768 8.026-7.69zm-4.452-10.31h-8v-2h8zm-2 2v2h-2v-2zm-4 0v2h-2v-2zm6-6h-8v-2h8zm0-4h-8v-2h8zm0-4h-8v-2h8zm-6-6h6v2h-6zm-4 34h-10v-10h10zm0-12h-10v-10h10zm0-12h-10v-10h10v.586l1.293-1.293 1.414 1.414-2.707 2.707zm6 24h-4v-2h4zm0-4h-4v-2h4zm-4-4v-2h8v2z" data-original="#000000" class="active-path" data-old_color="#000000" fill="#E40914"/></g> </svg>
