<?xml version="1.0"?>
<svg xmlns="http://www.w3.org/2000/svg" xmlns:xlink="http://www.w3.org/1999/xlink" version="1.1" id="Capa_1" x="0px" y="0px" width="512px" height="512px" viewBox="0 0 76.226 76.226" style="enable-background:new 0 0 76.226 76.226;" xml:space="preserve"><g><g>
	<path d="M56.896,60.201H6.719C2.911,60.201,0,57.289,0,53.481v-40.32c0-3.808,2.911-6.72,6.719-6.72H64.96   c3.808,0,6.72,2.912,6.72,6.721v20.384c-1.343-1.344-2.912-2.464-4.479-3.136V13.161c0-1.345-0.896-2.24-2.239-2.24H6.721   c-1.344,0-2.239,0.896-2.239,2.24v40.32c0,1.345,0.896,2.239,2.239,2.239l0,0h42.335C51.073,57.96,53.984,59.53,56.896,60.201z    M67.201,56.394c-6.496,3.809-14.783,1.566-18.594-4.93c-3.807-6.496-1.565-14.782,4.93-18.592   c6.496-3.808,14.783-1.567,18.593,4.929C75.938,44.296,73.698,52.81,67.201,56.394z M66.081,54.602   c5.601-3.138,7.394-10.08,4.257-15.456c-3.137-5.602-10.08-7.394-15.456-4.256c-5.601,3.136-7.394,10.078-4.257,15.455   C53.762,55.946,60.705,57.738,66.081,54.602z M70.673,55.666l-5.815,3.36l4.48,7.759l5.818-3.361L70.673,55.666z M75.713,64.682   l-5.822,3.358c0.896,1.566,2.911,2.239,4.702,1.344C76.387,68.49,76.609,66.25,75.713,64.682z M49.059,33.322L22.625,17.417v31.809   L49.059,33.322z" data-original="#000000" class="active-path" data-old_color="#000000" fill="#E40914"/>
</g></g> </svg>
