<?xml version="1.0"?>
<svg xmlns="http://www.w3.org/2000/svg" xmlns:xlink="http://www.w3.org/1999/xlink" version="1.1" id="Capa_1" x="0px" y="0px" viewBox="0 0 512 512" style="enable-background:new 0 0 512 512;" xml:space="preserve" width="512px" height="512px"><g><g>
	<g>
		<path d="M510.998,403.495c-1.779-5.435-6.467-9.39-12.121-10.21l-44.826-6.372l-19.613-39.711    c-5.039-10.254-21.854-10.254-26.894,0l-19.613,39.711l-43.826,6.372c-2.111,0.306-3.869,1.425-5.61,2.52    c-1.741-1.095-3.499-2.214-5.61-2.52l-43.826-6.372l-19.613-39.711c-5.039-10.254-21.854-10.254-26.894,0l-19.613,39.711    l-43.827,6.372c-2.111,0.306-3.869,1.425-5.61,2.52c-1.741-1.095-3.499-2.214-5.61-2.52l-43.826-6.372l-19.613-39.711    c-5.039-10.254-21.854-10.254-26.894,0l-19.613,39.711l-44.827,6.372c-5.654,0.82-10.342,4.775-12.114,10.21    c-1.758,5.42-0.293,11.382,3.794,15.365l31.728,30.922l-7.485,44.665c-0.967,5.625,1.348,11.309,5.962,14.662    c4.644,3.384,10.767,3.838,15.805,1.143l40.198-20.609l39.198,20.609c5.043,2.655,11.157,2.234,15.805-1.143    c4.614-3.354,6.929-9.038,5.962-14.662l-7.485-44.665l29.018-28.281l29.018,28.281l-7.485,44.665    c-0.967,5.625,1.348,11.309,5.962,14.662c4.644,3.384,10.767,3.838,15.805,1.143L256,489.644l39.198,20.609    c5.043,2.655,11.157,2.234,15.805-1.143c4.614-3.354,6.929-9.038,5.962-14.662l-7.485-44.665l29.018-28.281l29.018,28.281    l-7.485,44.665c-0.967,5.625,1.348,11.309,5.962,14.662c4.644,3.384,10.767,3.838,15.805,1.143l39.198-20.609l40.198,20.609    c5.043,2.655,11.157,2.234,15.805-1.143c4.614-3.354,6.929-9.038,5.962-14.662l-7.485-44.665l31.728-30.922    C511.291,414.877,512.756,408.915,510.998,403.495z" data-original="#000000" class="active-path" data-old_color="#000000" fill="#E40914"/>
	</g>
</g><g>
	<g>
		<path d="M256.26,90.997c-24.813,0-44.998,20.185-44.998,44.998c0,24.813,20.185,44.998,44.998,44.998    c24.813,0,44.998-20.185,44.998-44.998C301.258,111.182,281.073,90.997,256.26,90.997z" data-original="#000000" class="active-path" data-old_color="#000000" fill="#E40914"/>
	</g>
</g><g>
	<g>
		<path d="M256.26,210.992c-41.351,0-74.997,33.646-74.997,74.997c0,10.596,2.265,20.65,6.248,29.798    c20.961,9.662,44.196,15.2,68.749,15.2s47.789-5.539,68.75-15.2c3.983-9.148,6.248-19.201,6.248-29.798    C331.257,244.638,297.612,210.992,256.26,210.992z" data-original="#000000" class="active-path" data-old_color="#000000" fill="#E40914"/>
	</g>
</g><g>
	<g>
		<path d="M256.26,0C165.283,0,91.266,75.016,91.266,165.994c0,51.48,23.722,97.5,60.785,127.781    c-0.196-2.617-0.787-5.12-0.787-7.786c0-40.514,23.321-75.341,57.015-92.842c-16.372-13.769-27.016-34.139-27.016-57.153    c0-41.351,33.646-74.997,74.997-74.997c41.352,0,74.997,33.646,74.997,74.997c0,23.014-10.644,43.383-27.016,57.153    c33.694,17.5,57.015,52.328,57.015,92.842c0,2.666-0.591,5.169-0.787,7.786c37.063-30.281,60.785-76.301,60.785-127.781    C421.254,75.016,347.238,0,256.26,0z" data-original="#000000" class="active-path" data-old_color="#000000" fill="#E40914"/>
	</g>
</g></g> </svg>
